<svg xmlns="http://www.w3.org/2000/svg" viewBox="0 0 512.001 512.001"><g fill="#6b676e"><path d="M239.698 103.147c-2.667 0-5.286-1.289-6.874-3.675-7.55-11.323-16.762-17.857-28.148-19.961-24.643-4.578-50.72 13.667-50.97 13.853-3.715 2.644-8.865 1.765-11.507-1.942-2.635-3.707-1.781-8.848 1.926-11.492 1.289-.926 31.887-22.458 63.453-16.665 15.827 2.902 28.945 11.999 38.979 27.053 2.53 3.796 1.507 8.913-2.289 11.443-1.411.934-2.999 1.386-4.57 1.386zM272.692 103.147c2.667 0 5.286-1.289 6.874-3.675 7.55-11.323 16.762-17.857 28.148-19.961 24.643-4.578 50.72 13.667 50.97 13.853 3.715 2.644 8.865 1.765 11.507-1.942 2.635-3.707 1.781-8.848-1.926-11.492-1.289-.926-31.887-22.458-63.453-16.665-15.827 2.902-28.945 11.999-38.979 27.053-2.53 3.796-1.507 8.913 2.289 11.443 1.411.934 2.998 1.386 4.57 1.386z"/></g><path fill="#585661" d="M313.957 136.154c0-27.345-25.861-49.511-57.763-49.511s-57.763 22.167-57.763 49.511"/><ellipse cx="256.189" cy="317.695" fill="#ffd750" rx="107.274" ry="132.029"/><g fill="#6b676e"><path d="M162.677 253.12c-6.038 13.216-10.208 27.85-12.249 43.383 16.827 7.666 48.138 18.084 105.763 18.084 57.632 0 88.944-10.422 105.769-18.088-2.041-15.532-6.212-30.165-12.25-43.381-19.671 5.961-49.209 11.486-93.518 11.486-44.306-.001-73.844-5.523-93.515-11.484zM149.944 334.981c2.44 22.914 9.645 43.928 20.365 61.58 18.6 6.291 45.869 11.902 85.881 11.902 40.019 0 67.292-5.613 85.891-11.906 10.719-17.652 17.922-38.666 20.363-61.579-18.805 8.158-51.086 17.705-106.254 17.705-55.161 0-87.441-9.545-106.246-17.702z"/></g><path fill="#585661" d="M326.335 181.538c0 29.623-14.186 53.637-70.141 53.637s-70.141-24.014-70.141-53.637 14.186-53.637 70.141-53.637 70.141 24.015 70.141 53.637z"/><path fill="#6b676e" d="M330.461 160.908c0 22.786-15.02 41.259-74.267 41.259s-74.267-18.473-74.267-41.259 15.02-41.259 74.267-41.259 74.267 18.473 74.267 41.259z"/><path fill="#ffebd2" d="M470.742 259.931C339.744 138.216 313.57 130.48 313.57 130.48c19.254 22.693 11.86 40.957 8.639 55.184-16.504 72.891 14.441 117.589 33.007 132.029 39.73 30.9 156.785 69.109 156.785 41.259-.001-43.322-17.215-76.681-41.259-99.021z"/><path fill="#ffdeb7" d="M483.595 274.056c-4.022-5.062-8.262-9.858-12.854-14.124-2.657-2.468-5.201-4.815-7.772-7.19-26.761-5.794-62.742-13.56-81.27-17.385-20.848-22.705-46.25-48.217-57.218-59.129-.505 2.223-1.047 4.371-1.557 6.434-.236.973-.509 2.085-.716 3.002-.754 3.331-1.306 6.539-1.867 9.752 31.539 31.649 71.399 73.493 77.004 84.709 3.049 6.098 14.491 41.828 20.357 69.805.014.005.028.011.042.016 5.965 2.288 11.987 4.453 17.957 6.426.001.001.002.001.002.001-5.358-31.159-19.773-75.986-23.596-83.63-1.883-3.768-6.3-9.664-12.167-16.709 30.301 6.398 65.61 14.065 82.979 17.85.227.056.45.115.676.172z"/><path fill="#ffebd2" d="M41.259 259.931C172.257 138.216 198.431 130.48 198.431 130.48c-19.254 22.693-11.86 40.957-8.639 55.184 16.504 72.891-14.441 117.589-33.007 132.029C117.055 348.593 0 386.803 0 358.953c0-43.323 17.214-76.682 41.259-99.022z"/><path fill="#ffdeb7" d="M28.405 274.056c4.022-5.062 8.262-9.858 12.854-14.124 2.657-2.468 5.201-4.815 7.772-7.19 26.761-5.794 62.742-13.56 81.27-17.385 20.848-22.705 46.25-48.217 57.218-59.129.505 2.223 1.047 4.371 1.557 6.434.236.973.509 2.085.716 3.002.754 3.331 1.306 6.539 1.867 9.752-31.539 31.649-71.399 73.493-77.004 84.709-3.049 6.098-14.491 41.828-20.357 69.805-.014.005-.028.011-.042.016-5.965 2.288-11.987 4.453-17.957 6.426l-.003.001c5.359-31.159 19.775-75.986 23.597-83.63 1.883-3.768 6.3-9.664 12.167-16.709-30.301 6.398-65.61 14.065-82.979 17.85-.227.056-.449.115-.676.172z"/></svg>