<svg xmlns="http://www.w3.org/2000/svg" viewBox="0 0 509.071 509.071"><g fill="#2c2f38"><path d="M337.292 129.505c-2.777-.005-5.391-1.315-7.058-3.536-1.667-2.222-2.193-5.097-1.421-7.765l24.013-82.448c.738-3.031.242-6.231-1.379-8.897-1.548-2.476-4.036-4.217-6.892-4.823l-28.759-4.487c-3.119-.484-5.743-2.596-6.881-5.541s-.616-6.273 1.368-8.728 5.128-3.664 8.246-3.171l29.306 4.59c7.715 1.536 14.453 6.19 18.621 12.862 4.184 6.818 5.416 15.044 3.414 22.789l-24.108 82.793c-1.097 3.766-4.547 6.358-8.47 6.362zM500.184 209.742c-4.343-.006-8.036-3.171-8.707-7.461l-4.59-29.306c-.69-2.648-2.386-4.921-4.728-6.336-2.759-1.649-6.074-2.09-9.168-1.22L390.9 189.268c-3.03.883-6.301.08-8.579-2.104-2.278-2.184-3.217-5.418-2.462-8.483.754-3.064 3.087-5.493 6.119-6.37l82.362-23.923c7.801-2.142 16.139-.984 23.06 3.203 6.567 4.029 11.2 10.568 12.823 18.099l4.694 29.858c.397 2.55-.341 5.147-2.02 7.107-1.679 1.961-4.131 3.088-6.713 3.087z"/></g><path d="M486.866 411.896c-1.059 34.957-22.157 60.557-49.699 77.241-23.837 15.965-53.708 20.037-80.949 11.034-7.61 3.403-15.617 5.835-23.834 7.239-62.676 11.299-91.719-37.606-103.724-69.385h-.088c-9.91 7.808-20.352 14.917-31.25 21.274-20.079 11.867-42.061 20.169-64.971 24.541-34.428 6.179-65.589-.265-86.157-20.833-20.568-20.568-27.012-51.641-20.833-86.157 4.407-22.955 12.77-44.969 24.717-65.059 6.274-10.929 13.356-21.375 21.186-31.25C39.572 268.536-9.597 239.493 1.702 176.64c1.404-8.189 3.836-16.167 7.239-23.746v-.088c-9.015-27.24-4.943-57.116 11.034-80.949 16.596-27.63 42.284-48.728 77.153-49.788 7.382-.087 14.751.623 21.981 2.119 61.97 12.712 106.549 69.12 129.059 127.206 4.088-8.657 9.643-16.542 16.419-23.305 13.506-13.506 38.93-18.273 63.735-19.156 17.061-.36 34.123.643 51.023 3.001 9.427.805 17.046 8.021 18.361 17.39 2.136 17.097 2.991 34.329 2.56 51.553-.971 24.806-5.738 50.229-19.245 63.735-6.704 6.76-14.567 12.262-23.216 16.243 57.997 22.687 114.317 67.266 127.117 129.148 1.436 7.206 2.087 14.546 1.944 21.893z" fill="#d1d4d1"/><path d="M400.268 180.878c-.971 24.806-5.738 50.229-19.245 63.735-6.704 6.76-14.567 12.262-23.216 16.243-3.354-1.324-6.797-2.56-10.152-3.708-8.351-2.947-16.87-5.394-25.512-7.327-5.118-32.308-30.457-57.646-62.764-62.764h-.088c-1.933-8.642-4.38-17.161-7.327-25.512l-.088-.088c-1.148-3.354-2.383-6.621-3.708-9.975v-.088c4.088-8.657 9.643-16.542 16.419-23.305 13.506-13.506 38.93-18.273 63.735-19.156 17.061-.36 34.123.643 51.023 3.001 9.427.805 17.046 8.021 18.361 17.39 2.137 17.097 2.993 34.33 2.562 51.554z" fill="#f0c419"/><path d="M266.971 242.053c-7.54 9.998-16.422 18.909-26.394 26.483 7.514-10.021 16.399-18.936 26.394-26.483z" fill="#bdc3c7"/><path d="M486.866 411.896c-1.059 34.957-22.157 60.557-49.699 77.241-23.837 15.965-53.708 20.037-80.949 11.034 18.68-7.865 33.345-23.008 40.607-41.931 2.408-6.231 4.096-12.718 5.032-19.332 11.299-75.211-49.523-150.334-105.754-183.261-7.668-5.099-15.726-9.585-24.099-13.418 10.112.483 20.175 1.722 30.102 3.708 6.533.971 13.241 2.207 20.039 3.884 8.642 1.933 17.161 4.38 25.512 7.327 3.354 1.148 6.797 2.383 10.152 3.708 57.997 22.687 114.317 67.266 127.117 129.148 1.432 7.205 2.083 14.545 1.94 21.892z" fill="#d1d4d1"/><path d="M401.857 438.908c-.935 6.615-2.624 13.101-5.032 19.332-7.262 18.923-21.927 34.066-40.607 41.931-7.61 3.403-15.617 5.835-23.834 7.239-62.676 11.299-91.719-37.606-103.724-69.385-3.221-8.215-5.732-16.691-7.503-25.335 0 0-27.542-81.302 19.244-143.978l.177-.177c9.973-7.574 18.854-16.485 26.394-26.483.177-.088.265-.265.441-.353.706-.53 2.295-.265 4.326.53.088-.088.088 0 .177 0h.088c8.373 3.833 16.431 8.319 24.099 13.418 56.231 32.927 117.053 108.05 105.754 183.261z" fill="#bdc3c7"/><path d="M266.971 242.053c-7.54 9.998-16.422 18.909-26.394 26.483 7.514-10.021 16.399-18.936 26.394-26.483z" fill="#bdc3c7"/><g fill="#2c2f38"><path d="M68.105 471.244c-25.011 4.739-47.931 17.131-65.592 35.464 18.331-17.667 30.721-40.591 35.458-65.605l30.134 30.141zM197.321 459.211v.088c-20.079 11.867-42.061 20.169-64.971 24.541-3.392-27.186-15.793-52.453-35.222-71.768-19.292-19.462-44.57-31.868-71.768-35.222 4.407-22.955 12.77-44.969 24.717-65.059 37.145 5.402 71.531 22.719 97.986 49.346 26.656 26.46 43.95 60.893 49.258 98.074z"/></g><path d="M132.35 483.84c-34.428 6.179-65.589-.265-86.157-20.833-20.568-20.568-27.012-51.641-20.833-86.157 27.198 3.354 52.476 15.76 71.768 35.222 19.43 19.316 31.83 44.582 35.222 71.768z" fill="#f0c419"/><path d="M267.324 241.611c-.088.177-.265.265-.353.441-9.995 7.547-18.881 16.462-26.394 26.483l-.177.177c-62.588 46.786-143.978 19.244-143.978 19.244-8.578-1.766-16.994-4.246-25.159-7.415-31.691-12.005-80.86-41.048-69.561-103.901 1.404-8.189 3.836-16.167 7.239-23.746v-.088c7.918-18.644 23.043-33.291 41.931-40.607 6.231-2.409 12.718-4.097 19.332-5.032 75.211-11.299 150.334 49.523 183.172 105.754 5.099 7.668 9.585 15.726 13.418 24.099v.177c.795 2.119 1.06 3.708.53 4.414z" fill="#bdc3c7"/><path d="M266.795 237.021c-3.833-8.373-8.319-16.431-13.418-24.099C220.538 156.69 145.415 95.868 70.204 107.167c-6.615.935-13.101 2.623-19.332 5.032-18.888 7.316-34.013 21.963-41.931 40.607-9.015-27.24-4.943-57.116 11.034-80.949 16.596-27.63 42.284-48.728 77.153-49.788 7.382-.087 14.751.623 21.981 2.119 61.97 12.712 106.549 69.12 129.059 127.206v.088c1.324 3.354 2.56 6.621 3.708 9.975l.088.088c2.947 8.351 5.394 16.87 7.327 25.512 1.623 6.547 2.891 13.178 3.796 19.862 2.068 9.914 3.308 19.983 3.708 30.102z" fill="#d1d4d1"/><path d="M322.144 249.821c-6.797-1.677-13.506-2.913-20.039-3.884-9.927-1.985-19.99-3.224-30.102-3.708h-.088c-.088 0-.088-.088-.177 0-2.03-.794-3.619-1.059-4.326-.53-.177.088-.265.265-.441.353.088-.177.265-.265.353-.441.53-.706.265-2.295-.53-4.414v-.177c-.4-10.119-1.64-20.188-3.708-30.102-.905-6.684-2.173-13.315-3.796-19.862h.088c32.308 5.119 57.646 30.458 62.766 62.765z" fill="#2c2f38"/><path d="M221.156 412.69c1.772 8.644 4.282 17.12 7.503 25.335h-.088c-9.91 7.808-20.352 14.917-31.25 21.274v-.088c-5.309-37.181-22.603-71.615-49.258-98.074-26.455-26.628-60.842-43.945-97.986-49.346 6.274-10.929 13.356-21.375 21.186-31.25 8.165 3.169 16.58 5.65 25.159 7.415 0 0 81.39 27.542 143.978-19.244-46.786 62.676-19.244 143.978-19.244 143.978z" fill="#f0c419"/></svg>